<mxfile host="Electron" modified="2024-04-29T06:20:12.233Z" agent="Mozilla/5.0 (Macintosh; Intel Mac OS X 10_15_7) AppleWebKit/537.36 (KHTML, like Gecko) draw.io/24.2.5 Chrome/120.0.6099.109 Electron/28.1.0 Safari/537.36" etag="9XwKbiE6ZAXLQIfxOUdl" version="24.2.5" type="device">
  <diagram name="第 1 页" id="Xni6aPPIG27sV9Tf7pC3">
    <mxGraphModel dx="1434" dy="907" grid="1" gridSize="10" guides="1" tooltips="1" connect="1" arrows="1" fold="1" page="1" pageScale="1" pageWidth="827" pageHeight="1169" math="0" shadow="0">
      <root>
        <mxCell id="0" />
        <mxCell id="1" parent="0" />
        <mxCell id="BhLqjM0x8d6g2ZtVm6V2-3" value="" style="rounded=0;orthogonalLoop=1;jettySize=auto;html=1;fontSize=24;strokeWidth=3;" parent="1" source="BhLqjM0x8d6g2ZtVm6V2-1" target="BhLqjM0x8d6g2ZtVm6V2-2" edge="1">
          <mxGeometry relative="1" as="geometry" />
        </mxCell>
        <mxCell id="BhLqjM0x8d6g2ZtVm6V2-1" value="1" style="ellipse;whiteSpace=wrap;html=1;aspect=fixed;fontSize=24;" parent="1" vertex="1">
          <mxGeometry width="60" height="60" as="geometry" />
        </mxCell>
        <mxCell id="BhLqjM0x8d6g2ZtVm6V2-5" style="rounded=0;orthogonalLoop=1;jettySize=auto;html=1;fontSize=24;strokeWidth=3;" parent="1" source="BhLqjM0x8d6g2ZtVm6V2-2" target="BhLqjM0x8d6g2ZtVm6V2-4" edge="1">
          <mxGeometry relative="1" as="geometry" />
        </mxCell>
        <mxCell id="BhLqjM0x8d6g2ZtVm6V2-2" value="2" style="ellipse;whiteSpace=wrap;html=1;fontSize=24;" parent="1" vertex="1">
          <mxGeometry x="80" y="40" width="60" height="60" as="geometry" />
        </mxCell>
        <mxCell id="BhLqjM0x8d6g2ZtVm6V2-7" style="rounded=0;orthogonalLoop=1;jettySize=auto;html=1;fontSize=24;strokeWidth=3;" parent="1" source="BhLqjM0x8d6g2ZtVm6V2-4" target="BhLqjM0x8d6g2ZtVm6V2-6" edge="1">
          <mxGeometry relative="1" as="geometry" />
        </mxCell>
        <mxCell id="BhLqjM0x8d6g2ZtVm6V2-4" value="3" style="ellipse;whiteSpace=wrap;html=1;aspect=fixed;fontSize=24;" parent="1" vertex="1">
          <mxGeometry x="160" y="80" width="60" height="60" as="geometry" />
        </mxCell>
        <mxCell id="BhLqjM0x8d6g2ZtVm6V2-9" style="rounded=0;orthogonalLoop=1;jettySize=auto;html=1;fontSize=24;strokeWidth=3;" parent="1" source="BhLqjM0x8d6g2ZtVm6V2-6" target="BhLqjM0x8d6g2ZtVm6V2-8" edge="1">
          <mxGeometry relative="1" as="geometry" />
        </mxCell>
        <mxCell id="BhLqjM0x8d6g2ZtVm6V2-6" value="4" style="ellipse;whiteSpace=wrap;html=1;aspect=fixed;fontSize=24;" parent="1" vertex="1">
          <mxGeometry x="240" y="120" width="60" height="60" as="geometry" />
        </mxCell>
        <mxCell id="BhLqjM0x8d6g2ZtVm6V2-8" value="5" style="ellipse;whiteSpace=wrap;html=1;aspect=fixed;fontSize=24;" parent="1" vertex="1">
          <mxGeometry x="320" y="160" width="60" height="60" as="geometry" />
        </mxCell>
        <mxCell id="IpOxic86_co3rintxNaa-1" value="5 &amp;gt; 1" style="text;html=1;strokeColor=none;fillColor=none;align=center;verticalAlign=middle;whiteSpace=wrap;rounded=0;fontSize=24;" parent="1" vertex="1">
          <mxGeometry x="70" width="60" height="30" as="geometry" />
        </mxCell>
        <mxCell id="IpOxic86_co3rintxNaa-2" value="5 &amp;gt; 2" style="text;html=1;strokeColor=none;fillColor=none;align=center;verticalAlign=middle;whiteSpace=wrap;rounded=0;fontSize=24;" parent="1" vertex="1">
          <mxGeometry x="150" y="40" width="60" height="30" as="geometry" />
        </mxCell>
        <mxCell id="IpOxic86_co3rintxNaa-3" value="5 &amp;gt; 3" style="text;html=1;strokeColor=none;fillColor=none;align=center;verticalAlign=middle;whiteSpace=wrap;rounded=0;fontSize=24;" parent="1" vertex="1">
          <mxGeometry x="230" y="80" width="60" height="30" as="geometry" />
        </mxCell>
        <mxCell id="IpOxic86_co3rintxNaa-4" value="5 &amp;gt; 4" style="text;html=1;strokeColor=none;fillColor=none;align=center;verticalAlign=middle;whiteSpace=wrap;rounded=0;fontSize=24;" parent="1" vertex="1">
          <mxGeometry x="310" y="120" width="60" height="30" as="geometry" />
        </mxCell>
        <mxCell id="IpOxic86_co3rintxNaa-5" value="&lt;font style=&quot;font-size: 24px;&quot;&gt;Unbalanced Tree:&amp;nbsp;&lt;/font&gt;&lt;div&gt;&lt;font style=&quot;font-size: 24px;&quot;&gt;5 Comparisons&lt;/font&gt;&lt;/div&gt;" style="text;html=1;strokeColor=none;fillColor=none;align=center;verticalAlign=middle;whiteSpace=wrap;rounded=0;" parent="1" vertex="1">
          <mxGeometry x="20" y="220" width="220" height="30" as="geometry" />
        </mxCell>
        <mxCell id="IpOxic86_co3rintxNaa-11" style="rounded=0;orthogonalLoop=1;jettySize=auto;html=1;strokeColor=default;strokeWidth=3;" parent="1" source="IpOxic86_co3rintxNaa-6" target="IpOxic86_co3rintxNaa-7" edge="1">
          <mxGeometry relative="1" as="geometry" />
        </mxCell>
        <mxCell id="IpOxic86_co3rintxNaa-12" style="rounded=0;orthogonalLoop=1;jettySize=auto;html=1;strokeColor=default;strokeWidth=3;" parent="1" source="IpOxic86_co3rintxNaa-6" target="IpOxic86_co3rintxNaa-8" edge="1">
          <mxGeometry relative="1" as="geometry" />
        </mxCell>
        <mxCell id="IpOxic86_co3rintxNaa-6" value="3" style="ellipse;whiteSpace=wrap;html=1;aspect=fixed;fontSize=24;" parent="1" vertex="1">
          <mxGeometry x="570" width="60" height="60" as="geometry" />
        </mxCell>
        <mxCell id="IpOxic86_co3rintxNaa-14" style="rounded=0;orthogonalLoop=1;jettySize=auto;html=1;strokeColor=default;strokeWidth=3;" parent="1" source="IpOxic86_co3rintxNaa-7" target="IpOxic86_co3rintxNaa-9" edge="1">
          <mxGeometry relative="1" as="geometry" />
        </mxCell>
        <mxCell id="IpOxic86_co3rintxNaa-7" value="2" style="ellipse;whiteSpace=wrap;html=1;aspect=fixed;fontSize=24;" parent="1" vertex="1">
          <mxGeometry x="510" y="80" width="60" height="60" as="geometry" />
        </mxCell>
        <mxCell id="IpOxic86_co3rintxNaa-13" style="rounded=0;orthogonalLoop=1;jettySize=auto;html=1;strokeColor=default;strokeWidth=3;" parent="1" source="IpOxic86_co3rintxNaa-8" target="IpOxic86_co3rintxNaa-10" edge="1">
          <mxGeometry relative="1" as="geometry" />
        </mxCell>
        <mxCell id="IpOxic86_co3rintxNaa-8" value="4" style="ellipse;whiteSpace=wrap;html=1;aspect=fixed;fontSize=24;" parent="1" vertex="1">
          <mxGeometry x="630" y="80" width="60" height="60" as="geometry" />
        </mxCell>
        <mxCell id="IpOxic86_co3rintxNaa-9" value="1" style="ellipse;whiteSpace=wrap;html=1;aspect=fixed;fontSize=24;" parent="1" vertex="1">
          <mxGeometry x="450" y="160" width="60" height="60" as="geometry" />
        </mxCell>
        <mxCell id="IpOxic86_co3rintxNaa-10" value="5" style="ellipse;whiteSpace=wrap;html=1;aspect=fixed;fontSize=24;" parent="1" vertex="1">
          <mxGeometry x="690" y="160" width="60" height="60" as="geometry" />
        </mxCell>
        <mxCell id="IpOxic86_co3rintxNaa-15" value="5 &amp;gt; 3" style="text;html=1;strokeColor=none;fillColor=none;align=center;verticalAlign=middle;whiteSpace=wrap;rounded=0;fontSize=24;" parent="1" vertex="1">
          <mxGeometry x="640" y="10" width="60" height="30" as="geometry" />
        </mxCell>
        <mxCell id="IpOxic86_co3rintxNaa-16" value="5 &amp;gt; 4" style="text;html=1;strokeColor=none;fillColor=none;align=center;verticalAlign=middle;whiteSpace=wrap;rounded=0;fontSize=24;" parent="1" vertex="1">
          <mxGeometry x="710" y="90" width="60" height="30" as="geometry" />
        </mxCell>
        <mxCell id="IpOxic86_co3rintxNaa-17" value="&lt;font style=&quot;font-size: 24px;&quot;&gt;Balanced Tree:&lt;/font&gt;&lt;div&gt;&lt;font style=&quot;font-size: 24px;&quot;&gt;3 Comparisons&lt;/font&gt;&lt;/div&gt;" style="text;html=1;strokeColor=none;fillColor=none;align=center;verticalAlign=middle;whiteSpace=wrap;rounded=0;" parent="1" vertex="1">
          <mxGeometry x="490" y="220" width="220" height="30" as="geometry" />
        </mxCell>
        <mxCell id="3leC6LVe2iyz69dr-_q1-1" value="5 = 5" style="text;html=1;strokeColor=none;fillColor=none;align=center;verticalAlign=middle;whiteSpace=wrap;rounded=0;fontSize=24;" parent="1" vertex="1">
          <mxGeometry x="383.5" y="150" width="60" height="30" as="geometry" />
        </mxCell>
        <mxCell id="3leC6LVe2iyz69dr-_q1-2" value="5 = 5" style="text;html=1;strokeColor=none;fillColor=none;align=center;verticalAlign=middle;whiteSpace=wrap;rounded=0;fontSize=24;" parent="1" vertex="1">
          <mxGeometry x="760" y="150" width="60" height="30" as="geometry" />
        </mxCell>
      </root>
    </mxGraphModel>
  </diagram>
</mxfile>
